<mxfile host="app.diagrams.net" modified="2023-09-26T03:41:31.406Z" agent="Mozilla/5.0 (Windows NT 10.0; Win64; x64; rv:109.0) Gecko/20100101 Firefox/117.0" version="21.8.2" etag="2vivjyvx2sMIAhxfoea0" type="github">
  <diagram name="Page-1" id="B4tmoQrhf0uEv7pSsuzf">
    <mxGraphModel>
      <root>
        <mxCell id="0" />
        <mxCell id="1" parent="0" />
      </root>
    </mxGraphModel>
  </diagram>
</mxfile>
